# xmcd
#
# Track frame offsets:
#	150
#	11062
#	22525
#	34275
#	44837
#	57200
#	69562
#	77562
#	90675
#	104750
#	121600
#	134512
#	144337
#	159687
#	173225
#	186962
#
# Disc length: 2645
#
# Revision: 2
# Processed by: cddbd v1.5.1PL0 Copyright (c) Steve Scherf et al.
# Submitted via: dBpowerAMP V4.0
# Normalized: r0:TDELIM( - ),TSWAP
#
DISCID=d90a5310
DTITLE=Various Artist - Country Legends vol 1
DYEAR=1900
DGENRE=Country
TTITLE0=Lynn Anderson - 1.Heaven is Just a Sin Away
TTITLE1=Kenny Rogers - 2.Poem For My Lady
TTITLE2=Donna Fargo - 3.The Happiest Girl In The Whole USA
TTITLE3=Freddie Fender - 4.A Man Can Cry
TTITLE4=Dolly Parton - 5.Two Little Orphans
TTITLE5=Johnny Cash - 6.Next In Line
TTITLE6=Waylon Jennings - 7.Mean Old Greyhound Bus
TTITLE7=George Jones - 8.When The Grass Grows Over Me
TTITLE8=Billie Jo Spears - 9.Mr Walker,It's All Over
TTITLE9=Willie Nelson - 10.I Let My Mind Wander
TTITLE10=Kenny Rogers - 11.Ruby,Don't Take Your Love To Town
TTITLE11=The Everly Bros. - 12.I Wonder If You Care As Much
TTITLE12=Lynn Anderson - 13.Desparado
TTITLE13=Don Williams - 14.Where Do We Go From Here
TTITLE14=Willie Nelson - 15.You'll Always Have Someone
TTITLE15=Oak Ridge Boys - 16.No-one Cared As Much
EXTD=
EXTT0=
EXTT1=
EXTT2=
EXTT3=
EXTT4=
EXTT5=
EXTT6=
EXTT7=
EXTT8=
EXTT9=
EXTT10=
EXTT11=
EXTT12=
EXTT13=
EXTT14=
EXTT15=
PLAYORDER=
